<svg xmlns="http://www.w3.org/2000/svg" xmlns:xlink="http://www.w3.org/1999/xlink" width="600" zoomAndPan="magnify" viewBox="0 0 450 225" height="300" preserveAspectRatio="xMidYMid meet" version="1.0"><defs><g/><clipPath id="bc5d4c2695"><path d="M 375 39 L 412.859375 39 L 412.859375 91 L 375 91 Z M 375 39 " clip-rule="nonzero"/></clipPath></defs><g fill="#ffffff" fill-opacity="1"><g transform="translate(9.82631, 140.818108)"><g><path d="M 29.96875 -2.15625 C 28.53125 -1.519531 26.769531 -0.878906 24.6875 -0.234375 C 22.613281 0.398438 20.429688 0.71875 18.140625 0.71875 C 16.648438 0.71875 15.25 0.53125 13.9375 0.15625 C 12.632812 -0.21875 11.488281 -0.816406 10.5 -1.640625 C 9.519531 -2.460938 8.734375 -3.523438 8.140625 -4.828125 C 7.554688 -6.140625 7.265625 -7.726562 7.265625 -9.59375 L 7.265625 -33.640625 L 1.765625 -33.640625 L 1.765625 -41.875 L 7.265625 -41.875 L 7.265625 -55.453125 L 17.984375 -55.453125 L 17.984375 -41.875 L 26.765625 -41.875 L 26.765625 -33.640625 L 17.984375 -33.640625 L 17.984375 -13.1875 C 17.984375 -11.695312 18.367188 -10.644531 19.140625 -10.03125 C 19.910156 -9.414062 20.851562 -9.109375 21.96875 -9.109375 C 23.09375 -9.109375 24.1875 -9.296875 25.25 -9.671875 C 26.3125 -10.046875 27.164062 -10.363281 27.8125 -10.625 Z M 29.96875 -2.15625 "/></g></g></g><g fill="#ffffff" fill-opacity="1"><g transform="translate(34.51515, 140.818108)"><g><path d="M 43.78125 0 L 33.078125 0 L 33.078125 -23.5 C 33.078125 -26.800781 32.460938 -29.234375 31.234375 -30.796875 C 30.015625 -32.367188 28.285156 -33.15625 26.046875 -33.15625 C 25.085938 -33.15625 24.078125 -32.941406 23.015625 -32.515625 C 21.953125 -32.085938 20.9375 -31.488281 19.96875 -30.71875 C 19.007812 -29.945312 18.128906 -29.03125 17.328125 -27.96875 C 16.535156 -26.90625 15.953125 -25.734375 15.578125 -24.453125 L 15.578125 0 L 4.875 0 L 4.875 -58.328125 L 15.578125 -58.328125 L 15.578125 -34.125 C 17.128906 -36.832031 19.222656 -38.921875 21.859375 -40.390625 C 24.492188 -41.859375 27.410156 -42.59375 30.609375 -42.59375 C 33.316406 -42.59375 35.523438 -42.125 37.234375 -41.1875 C 38.941406 -40.257812 40.273438 -39.019531 41.234375 -37.46875 C 42.191406 -35.925781 42.851562 -34.171875 43.21875 -32.203125 C 43.59375 -30.234375 43.78125 -28.207031 43.78125 -26.125 Z M 43.78125 0 "/></g></g></g><g fill="#ffffff" fill-opacity="1"><g transform="translate(76.781998, 140.818108)"><g><path d="M 24.296875 0.796875 C 20.929688 0.796875 17.890625 0.222656 15.171875 -0.921875 C 12.460938 -2.066406 10.148438 -3.625 8.234375 -5.59375 C 6.316406 -7.5625 4.835938 -9.847656 3.796875 -12.453125 C 2.753906 -15.066406 2.234375 -17.816406 2.234375 -20.703125 C 2.234375 -23.679688 2.738281 -26.488281 3.75 -29.125 C 4.769531 -31.757812 6.238281 -34.078125 8.15625 -36.078125 C 10.070312 -38.078125 12.398438 -39.660156 15.140625 -40.828125 C 17.878906 -42.003906 20.957031 -42.59375 24.375 -42.59375 C 27.78125 -42.59375 30.828125 -42.003906 33.515625 -40.828125 C 36.210938 -39.660156 38.503906 -38.085938 40.390625 -36.109375 C 42.285156 -34.140625 43.722656 -31.847656 44.703125 -29.234375 C 45.691406 -26.628906 46.1875 -23.914062 46.1875 -21.09375 C 46.1875 -20.40625 46.171875 -19.738281 46.140625 -19.09375 C 46.117188 -18.457031 46.054688 -17.925781 45.953125 -17.5 L 13.578125 -17.5 C 13.742188 -15.84375 14.144531 -14.375 14.78125 -13.09375 C 15.414062 -11.820312 16.238281 -10.734375 17.25 -9.828125 C 18.269531 -8.921875 19.414062 -8.226562 20.6875 -7.75 C 21.96875 -7.269531 23.300781 -7.03125 24.6875 -7.03125 C 26.820312 -7.03125 28.832031 -7.546875 30.71875 -8.578125 C 32.613281 -9.617188 33.90625 -10.992188 34.59375 -12.703125 L 43.78125 -10.140625 C 42.238281 -6.953125 39.773438 -4.332031 36.390625 -2.28125 C 33.015625 -0.226562 28.984375 0.796875 24.296875 0.796875 Z M 35.15625 -24.453125 C 34.894531 -27.597656 33.738281 -30.113281 31.6875 -32 C 29.632812 -33.894531 27.144531 -34.84375 24.21875 -34.84375 C 22.769531 -34.84375 21.421875 -34.585938 20.171875 -34.078125 C 18.921875 -33.578125 17.816406 -32.875 16.859375 -31.96875 C 15.898438 -31.0625 15.113281 -29.96875 14.5 -28.6875 C 13.882812 -27.40625 13.523438 -25.992188 13.421875 -24.453125 Z M 35.15625 -24.453125 "/></g></g></g><g fill="#ffffff" fill-opacity="1"><g transform="translate(118.64935, 140.818108)"><g><path d="M 5.90625 0 L 5.90625 -56.734375 L 26.53125 -56.734375 C 31.164062 -56.734375 35.226562 -55.988281 38.71875 -54.5 C 42.207031 -53.007812 45.125 -50.984375 47.46875 -48.421875 C 49.8125 -45.867188 51.566406 -42.875 52.734375 -39.4375 C 53.910156 -36 54.5 -32.335938 54.5 -28.453125 C 54.5 -24.128906 53.84375 -20.222656 52.53125 -16.734375 C 51.226562 -13.242188 49.351562 -10.257812 46.90625 -7.78125 C 44.457031 -5.3125 41.515625 -3.394531 38.078125 -2.03125 C 34.640625 -0.675781 30.789062 0 26.53125 0 Z M 43.390625 -28.453125 C 43.390625 -31.160156 43.015625 -33.660156 42.265625 -35.953125 C 41.523438 -38.242188 40.4375 -40.210938 39 -41.859375 C 37.5625 -43.515625 35.789062 -44.796875 33.6875 -45.703125 C 31.582031 -46.609375 29.195312 -47.0625 26.53125 -47.0625 L 16.9375 -47.0625 L 16.9375 -9.671875 L 26.53125 -9.671875 C 29.25 -9.671875 31.660156 -10.148438 33.765625 -11.109375 C 35.867188 -12.066406 37.625 -13.382812 39.03125 -15.0625 C 40.445312 -16.738281 41.523438 -18.722656 42.265625 -21.015625 C 43.015625 -23.304688 43.390625 -25.785156 43.390625 -28.453125 Z M 43.390625 -28.453125 "/></g></g></g><g fill="#ffffff" fill-opacity="1"><g transform="translate(169.865009, 140.818108)"><g><path d="M 24.296875 0.796875 C 20.929688 0.796875 17.890625 0.222656 15.171875 -0.921875 C 12.460938 -2.066406 10.148438 -3.625 8.234375 -5.59375 C 6.316406 -7.5625 4.835938 -9.847656 3.796875 -12.453125 C 2.753906 -15.066406 2.234375 -17.816406 2.234375 -20.703125 C 2.234375 -23.679688 2.738281 -26.488281 3.75 -29.125 C 4.769531 -31.757812 6.238281 -34.078125 8.15625 -36.078125 C 10.070312 -38.078125 12.398438 -39.660156 15.140625 -40.828125 C 17.878906 -42.003906 20.957031 -42.59375 24.375 -42.59375 C 27.78125 -42.59375 30.828125 -42.003906 33.515625 -40.828125 C 36.210938 -39.660156 38.503906 -38.085938 40.390625 -36.109375 C 42.285156 -34.140625 43.722656 -31.847656 44.703125 -29.234375 C 45.691406 -26.628906 46.1875 -23.914062 46.1875 -21.09375 C 46.1875 -20.40625 46.171875 -19.738281 46.140625 -19.09375 C 46.117188 -18.457031 46.054688 -17.925781 45.953125 -17.5 L 13.578125 -17.5 C 13.742188 -15.84375 14.144531 -14.375 14.78125 -13.09375 C 15.414062 -11.820312 16.238281 -10.734375 17.25 -9.828125 C 18.269531 -8.921875 19.414062 -8.226562 20.6875 -7.75 C 21.96875 -7.269531 23.300781 -7.03125 24.6875 -7.03125 C 26.820312 -7.03125 28.832031 -7.546875 30.71875 -8.578125 C 32.613281 -9.617188 33.90625 -10.992188 34.59375 -12.703125 L 43.78125 -10.140625 C 42.238281 -6.953125 39.773438 -4.332031 36.390625 -2.28125 C 33.015625 -0.226562 28.984375 0.796875 24.296875 0.796875 Z M 35.15625 -24.453125 C 34.894531 -27.597656 33.738281 -30.113281 31.6875 -32 C 29.632812 -33.894531 27.144531 -34.84375 24.21875 -34.84375 C 22.769531 -34.84375 21.421875 -34.585938 20.171875 -34.078125 C 18.921875 -33.578125 17.816406 -32.875 16.859375 -31.96875 C 15.898438 -31.0625 15.113281 -29.96875 14.5 -28.6875 C 13.882812 -27.40625 13.523438 -25.992188 13.421875 -24.453125 Z M 35.15625 -24.453125 "/></g></g></g><g fill="#ffffff" fill-opacity="1"><g transform="translate(211.732369, 140.818108)"><g><path d="M 43.78125 0 L 33.078125 0 L 33.078125 -23.5 C 33.078125 -26.851562 32.488281 -29.300781 31.3125 -30.84375 C 30.144531 -32.382812 28.523438 -33.15625 26.453125 -33.15625 C 25.378906 -33.15625 24.285156 -32.941406 23.171875 -32.515625 C 22.054688 -32.085938 21.003906 -31.488281 20.015625 -30.71875 C 19.023438 -29.945312 18.128906 -29.03125 17.328125 -27.96875 C 16.535156 -26.90625 15.953125 -25.734375 15.578125 -24.453125 L 15.578125 0 L 4.875 0 L 4.875 -41.875 L 14.546875 -41.875 L 14.546875 -34.125 C 16.085938 -36.78125 18.320312 -38.851562 21.25 -40.34375 C 24.1875 -41.84375 27.488281 -42.59375 31.15625 -42.59375 C 33.769531 -42.59375 35.898438 -42.113281 37.546875 -41.15625 C 39.203125 -40.195312 40.484375 -38.941406 41.390625 -37.390625 C 42.296875 -35.847656 42.921875 -34.09375 43.265625 -32.125 C 43.609375 -30.15625 43.78125 -28.15625 43.78125 -26.125 Z M 43.78125 0 "/></g></g></g><g fill="#ffffff" fill-opacity="1"><g transform="translate(253.999222, 140.818108)"><g><path d="M 29.96875 -2.15625 C 28.53125 -1.519531 26.769531 -0.878906 24.6875 -0.234375 C 22.613281 0.398438 20.429688 0.71875 18.140625 0.71875 C 16.648438 0.71875 15.25 0.53125 13.9375 0.15625 C 12.632812 -0.21875 11.488281 -0.816406 10.5 -1.640625 C 9.519531 -2.460938 8.734375 -3.523438 8.140625 -4.828125 C 7.554688 -6.140625 7.265625 -7.726562 7.265625 -9.59375 L 7.265625 -33.640625 L 1.765625 -33.640625 L 1.765625 -41.875 L 7.265625 -41.875 L 7.265625 -55.453125 L 17.984375 -55.453125 L 17.984375 -41.875 L 26.765625 -41.875 L 26.765625 -33.640625 L 17.984375 -33.640625 L 17.984375 -13.1875 C 17.984375 -11.695312 18.367188 -10.644531 19.140625 -10.03125 C 19.910156 -9.414062 20.851562 -9.109375 21.96875 -9.109375 C 23.09375 -9.109375 24.1875 -9.296875 25.25 -9.671875 C 26.3125 -10.046875 27.164062 -10.363281 27.8125 -10.625 Z M 29.96875 -2.15625 "/></g></g></g><g fill="#b3e5fc" fill-opacity="1"><g transform="translate(278.678094, 140.818108)"><g><path d="M 2.484375 -28.765625 C 2.484375 -32.222656 3.109375 -35.644531 4.359375 -39.03125 C 5.609375 -42.414062 7.429688 -45.4375 9.828125 -48.09375 C 12.222656 -50.757812 15.148438 -52.914062 18.609375 -54.5625 C 22.078125 -56.21875 26.019531 -57.046875 30.4375 -57.046875 C 35.664062 -57.046875 40.179688 -55.898438 43.984375 -53.609375 C 47.796875 -51.328125 50.632812 -48.347656 52.5 -44.671875 L 44.03125 -38.828125 C 43.28125 -40.429688 42.375 -41.773438 41.3125 -42.859375 C 40.25 -43.953125 39.101562 -44.816406 37.875 -45.453125 C 36.644531 -46.097656 35.363281 -46.566406 34.03125 -46.859375 C 32.707031 -47.148438 31.40625 -47.296875 30.125 -47.296875 C 27.351562 -47.296875 24.941406 -46.738281 22.890625 -45.625 C 20.835938 -44.507812 19.128906 -43.054688 17.765625 -41.265625 C 16.410156 -39.484375 15.382812 -37.457031 14.6875 -35.1875 C 14 -32.925781 13.65625 -30.679688 13.65625 -28.453125 C 13.65625 -25.941406 14.054688 -23.523438 14.859375 -21.203125 C 15.660156 -18.890625 16.789062 -16.851562 18.25 -15.09375 C 19.71875 -13.34375 21.476562 -11.929688 23.53125 -10.859375 C 25.582031 -9.796875 27.832031 -9.265625 30.28125 -9.265625 C 31.5625 -9.265625 32.894531 -9.425781 34.28125 -9.75 C 35.664062 -10.070312 36.984375 -10.578125 38.234375 -11.265625 C 39.484375 -11.960938 40.640625 -12.851562 41.703125 -13.9375 C 42.773438 -15.03125 43.628906 -16.351562 44.265625 -17.90625 L 53.296875 -12.703125 C 52.390625 -10.578125 51.097656 -8.703125 49.421875 -7.078125 C 47.742188 -5.453125 45.851562 -4.078125 43.75 -2.953125 C 41.644531 -1.835938 39.394531 -0.984375 37 -0.390625 C 34.601562 0.191406 32.257812 0.484375 29.96875 0.484375 C 25.914062 0.484375 22.210938 -0.367188 18.859375 -2.078125 C 15.503906 -3.785156 12.613281 -6.007812 10.1875 -8.75 C 7.757812 -11.488281 5.867188 -14.601562 4.515625 -18.09375 C 3.160156 -21.582031 2.484375 -25.140625 2.484375 -28.765625 Z M 2.484375 -28.765625 "/></g></g></g><g fill="#b3e5fc" fill-opacity="1"><g transform="translate(327.496758, 140.818108)"><g><path d="M 16.296875 0.796875 C 14.273438 0.796875 12.382812 0.460938 10.625 -0.203125 C 8.863281 -0.867188 7.34375 -1.800781 6.0625 -3 C 4.789062 -4.195312 3.796875 -5.59375 3.078125 -7.1875 C 2.359375 -8.789062 2 -10.550781 2 -12.46875 C 2 -14.4375 2.4375 -16.257812 3.3125 -17.9375 C 4.195312 -19.613281 5.421875 -21.035156 6.984375 -22.203125 C 8.554688 -23.378906 10.4375 -24.300781 12.625 -24.96875 C 14.8125 -25.632812 17.207031 -25.96875 19.8125 -25.96875 C 21.675781 -25.96875 23.5 -25.804688 25.28125 -25.484375 C 27.070312 -25.171875 28.660156 -24.71875 30.046875 -24.125 L 30.046875 -26.53125 C 30.046875 -29.300781 29.257812 -31.429688 27.6875 -32.921875 C 26.113281 -34.410156 23.785156 -35.15625 20.703125 -35.15625 C 18.460938 -35.15625 16.273438 -34.753906 14.140625 -33.953125 C 12.015625 -33.160156 9.832031 -31.988281 7.59375 -30.4375 L 4.3125 -37.234375 C 9.695312 -40.804688 15.503906 -42.59375 21.734375 -42.59375 C 27.753906 -42.59375 32.425781 -41.113281 35.75 -38.15625 C 39.082031 -35.195312 40.75 -30.921875 40.75 -25.328125 L 40.75 -12.3125 C 40.75 -11.1875 40.945312 -10.382812 41.34375 -9.90625 C 41.75 -9.425781 42.40625 -9.160156 43.3125 -9.109375 L 43.3125 0 C 41.5 0.375 39.925781 0.5625 38.59375 0.5625 C 36.570312 0.5625 35.015625 0.109375 33.921875 -0.796875 C 32.828125 -1.703125 32.144531 -2.898438 31.875 -4.390625 L 31.640625 -6.71875 C 29.773438 -4.257812 27.507812 -2.390625 24.84375 -1.109375 C 22.1875 0.160156 19.335938 0.796875 16.296875 0.796875 Z M 19.34375 -7.03125 C 21.144531 -7.03125 22.859375 -7.347656 24.484375 -7.984375 C 26.109375 -8.628906 27.375 -9.484375 28.28125 -10.546875 C 29.457031 -11.453125 30.046875 -12.460938 30.046875 -13.578125 L 30.046875 -18.375 C 28.765625 -18.851562 27.378906 -19.238281 25.890625 -19.53125 C 24.398438 -19.820312 22.960938 -19.96875 21.578125 -19.96875 C 18.804688 -19.96875 16.539062 -19.34375 14.78125 -18.09375 C 13.019531 -16.84375 12.140625 -15.257812 12.140625 -13.34375 C 12.140625 -11.53125 12.832031 -10.023438 14.21875 -8.828125 C 15.601562 -7.628906 17.3125 -7.03125 19.34375 -7.03125 Z M 19.34375 -7.03125 "/></g></g></g><g fill="#b3e5fc" fill-opacity="1"><g transform="translate(367.366615, 140.818108)"><g><path d="M 29.8125 -32.609375 C 26.5625 -32.546875 23.65625 -31.914062 21.09375 -30.71875 C 18.539062 -29.519531 16.703125 -27.722656 15.578125 -25.328125 L 15.578125 0 L 4.875 0 L 4.875 -41.875 L 14.703125 -41.875 L 14.703125 -32.921875 C 15.453125 -34.359375 16.332031 -35.648438 17.34375 -36.796875 C 18.351562 -37.941406 19.441406 -38.941406 20.609375 -39.796875 C 21.785156 -40.648438 22.972656 -41.300781 24.171875 -41.75 C 25.367188 -42.207031 26.523438 -42.4375 27.640625 -42.4375 C 28.234375 -42.4375 28.675781 -42.4375 28.96875 -42.4375 C 29.257812 -42.4375 29.539062 -42.40625 29.8125 -42.34375 Z M 29.8125 -32.609375 "/></g></g></g><g fill="#b3e5fc" fill-opacity="1"><g transform="translate(392.295149, 140.818108)"><g><path d="M 24.296875 0.796875 C 20.929688 0.796875 17.890625 0.222656 15.171875 -0.921875 C 12.460938 -2.066406 10.148438 -3.625 8.234375 -5.59375 C 6.316406 -7.5625 4.835938 -9.847656 3.796875 -12.453125 C 2.753906 -15.066406 2.234375 -17.816406 2.234375 -20.703125 C 2.234375 -23.679688 2.738281 -26.488281 3.75 -29.125 C 4.769531 -31.757812 6.238281 -34.078125 8.15625 -36.078125 C 10.070312 -38.078125 12.398438 -39.660156 15.140625 -40.828125 C 17.878906 -42.003906 20.957031 -42.59375 24.375 -42.59375 C 27.78125 -42.59375 30.828125 -42.003906 33.515625 -40.828125 C 36.210938 -39.660156 38.503906 -38.085938 40.390625 -36.109375 C 42.285156 -34.140625 43.722656 -31.847656 44.703125 -29.234375 C 45.691406 -26.628906 46.1875 -23.914062 46.1875 -21.09375 C 46.1875 -20.40625 46.171875 -19.738281 46.140625 -19.09375 C 46.117188 -18.457031 46.054688 -17.925781 45.953125 -17.5 L 13.578125 -17.5 C 13.742188 -15.84375 14.144531 -14.375 14.78125 -13.09375 C 15.414062 -11.820312 16.238281 -10.734375 17.25 -9.828125 C 18.269531 -8.921875 19.414062 -8.226562 20.6875 -7.75 C 21.96875 -7.269531 23.300781 -7.03125 24.6875 -7.03125 C 26.820312 -7.03125 28.832031 -7.546875 30.71875 -8.578125 C 32.613281 -9.617188 33.90625 -10.992188 34.59375 -12.703125 L 43.78125 -10.140625 C 42.238281 -6.953125 39.773438 -4.332031 36.390625 -2.28125 C 33.015625 -0.226562 28.984375 0.796875 24.296875 0.796875 Z M 35.15625 -24.453125 C 34.894531 -27.597656 33.738281 -30.113281 31.6875 -32 C 29.632812 -33.894531 27.144531 -34.84375 24.21875 -34.84375 C 22.769531 -34.84375 21.421875 -34.585938 20.171875 -34.078125 C 18.921875 -33.578125 17.816406 -32.875 16.859375 -31.96875 C 15.898438 -31.0625 15.113281 -29.96875 14.5 -28.6875 C 13.882812 -27.40625 13.523438 -25.992188 13.421875 -24.453125 Z M 35.15625 -24.453125 "/></g></g></g><g clip-path="url(#bc5d4c2695)"><path fill="#ffffff" d="M 395.941406 43.078125 C 395.941406 43.078125 394.695312 44.113281 391.335938 42.339844 C 387.5625 40.355469 376.59375 36.574219 375.597656 47.621094 C 374.597656 58.667969 380.214844 66.125 380.214844 66.125 C 380.214844 66.125 376.804688 79.707031 385.085938 89.835938 C 387.910156 93.285156 389.671875 86.929688 389.671875 85.261719 C 389.671875 84.113281 389.78125 71.613281 395.101562 72.132812 C 396.699219 72.289062 399.859375 73.707031 400.753906 83.257812 C 401.640625 92.71875 404.738281 91.3125 407.175781 86.5625 C 409.613281 81.8125 410.550781 71.929688 408.519531 65.761719 C 408.519531 65.761719 412.863281 53.878906 411.929688 45.753906 C 411.242188 39.75 403.8125 36.847656 395.941406 43.078125 Z M 395.941406 43.078125 " fill-opacity="1" fill-rule="nonzero"/></g></svg>